<svg xmlns="http://www.w3.org/2000/svg" width="432" height="149" viewBox="0 0 432 149">
  <metadata><?xpacket begin="﻿" id="W5M0MpCehiHzreSzNTczkc9d"?>
<x:xmpmeta xmlns:x="adobe:ns:meta/" x:xmptk="Adobe XMP Core 5.6-c140 79.160451, 2017/05/06-01:08:21        ">
   <rdf:RDF xmlns:rdf="http://www.w3.org/1999/02/22-rdf-syntax-ns#">
      <rdf:Description rdf:about=""/>
   </rdf:RDF>
</x:xmpmeta>
                                                                                                    
                                                                                                    
                                                                                                    
                                                                                                    
                                                                                                    
                                                                                                    
                                                                                                    
                                                                                                    
                                                                                                    
                                                                                                    
                                                                                                    
                                                                                                    
                                                                                                    
                                                                                                    
                                                                                                    
                                                                                                    
                                                                                                    
                                                                                                    
                                                                                                    
                                                                                                    
                           
<?xpacket end="w"?></metadata>
<defs>
    <style>
      .cls-1 {
        fill: #fff;
        stroke: #363636;
        stroke-linejoin: round;
        stroke-width: 6px;
      }

      .cls-2 {
        fill: #363636;
        fill-rule: evenodd;
      }
    </style>
  </defs>
  <rect id="Rounded_Rectangle_2" data-name="Rounded Rectangle 2" class="cls-1" x="44" y="39" width="342" height="86" rx="43" ry="43"/>
  <path id="Click" class="cls-2" d="M181.678,88.465q-0.82,5.274-3.325,7.4t-7.192,2.124a9.37,9.37,0,0,1-8.115-4.1q-2.9-4.1-2.9-11.055V78.693q0-7.359,3.062-11.347a10.062,10.062,0,0,1,8.452-3.988,9.618,9.618,0,0,1,6.841,2.292q2.445,2.292,3.178,7.405h5.655q-0.675-6.709-4.776-10.5t-10.9-3.794a16.766,16.766,0,0,0-9.024,2.417,15.87,15.87,0,0,0-6.02,6.929,24.305,24.305,0,0,0-2.124,10.459v4.1q0,9.082,4.556,14.5a15.027,15.027,0,0,0,12.114,5.42q6.972,0,11.177-3.677t5-10.444h-5.655ZM200.048,57h-5.42v45h5.42V57Zm14.56,13.3h-5.42V102h5.42V70.3Zm-5.054-6.211a3.079,3.079,0,0,0,2.388.879,2.934,2.934,0,0,0,3.223-3.076,3.2,3.2,0,0,0-.821-2.227,3.072,3.072,0,0,0-2.4-.908,3.026,3.026,0,0,0-2.388.908,3.236,3.236,0,0,0-.805,2.227A3.128,3.128,0,0,0,209.554,64.09Zm20,31.113q-2.258-2.959-2.256-8.437V85.74q0-5.625,2.27-8.6a7.588,7.588,0,0,1,6.4-2.974,7.244,7.244,0,0,1,5.17,1.977,7.471,7.471,0,0,1,2.33,5.054h5.127a11.418,11.418,0,0,0-3.765-8.291,12.716,12.716,0,0,0-8.862-3.193,13.859,13.859,0,0,0-7.515,1.992,12.94,12.94,0,0,0-4.878,5.6,19.082,19.082,0,0,0-1.7,8.233v0.908q0,7.5,3.823,11.821a13.056,13.056,0,0,0,10.3,4.321,13.309,13.309,0,0,0,6.108-1.465,12.35,12.35,0,0,0,4.615-3.926,9.834,9.834,0,0,0,1.875-5.186h-5.127a6.189,6.189,0,0,1-2.4,4.395A7.806,7.806,0,0,1,236,98.162,7.62,7.62,0,0,1,229.55,95.2Zm45.029,6.8h6.357L267.167,83.543,279.5,70.3h-6.592l-9.873,10.43-2.9,3.486V57h-5.419v45h5.419V90.867l3.4-3.545Z"/>
</svg>
