<svg xmlns="http://www.w3.org/2000/svg" width="432" height="149" viewBox="0 0 432 149">
  <metadata><?xpacket begin="﻿" id="W5M0MpCehiHzreSzNTczkc9d"?>
<x:xmpmeta xmlns:x="adobe:ns:meta/" x:xmptk="Adobe XMP Core 5.6-c140 79.160451, 2017/05/06-01:08:21        ">
   <rdf:RDF xmlns:rdf="http://www.w3.org/1999/02/22-rdf-syntax-ns#">
      <rdf:Description rdf:about=""/>
   </rdf:RDF>
</x:xmpmeta>
                                                                                                    
                                                                                                    
                                                                                                    
                                                                                                    
                                                                                                    
                                                                                                    
                                                                                                    
                                                                                                    
                                                                                                    
                                                                                                    
                                                                                                    
                                                                                                    
                                                                                                    
                                                                                                    
                                                                                                    
                                                                                                    
                                                                                                    
                                                                                                    
                                                                                                    
                                                                                                    
                           
<?xpacket end="w"?></metadata>
<defs>
    <style>
      .cls-1 {
        fill: #fff;
        stroke: #363636;
        stroke-linejoin: round;
        stroke-width: 6px;
      }

      .cls-2 {
        fill: #363636;
        fill-rule: evenodd;
      }
    </style>
  </defs>
  <rect id="Rounded_Rectangle_2" data-name="Rounded Rectangle 2" class="cls-1" x="44" y="39" width="342" height="86" rx="43" ry="43"/>
  <path id="Space" class="cls-2" d="M158.944,86.37a5.792,5.792,0,0,1,2.2,4.849,5.9,5.9,0,0,1-2.373,4.951q-2.373,1.817-6.826,1.816a12.028,12.028,0,0,1-7.632-2.241,7.347,7.347,0,0,1-2.856-6.108H135.8a11.259,11.259,0,0,0,2.065,6.65,13.8,13.8,0,0,0,5.874,4.614,20.049,20.049,0,0,0,8.2,1.685q6.768,0,10.811-3.12A9.967,9.967,0,0,0,166.8,91.16a10.729,10.729,0,0,0-1.451-5.654,12.62,12.62,0,0,0-4.453-4.2,34.929,34.929,0,0,0-8.32-3.3q-5.318-1.5-7.529-3.3a5.5,5.5,0,0,1-2.212-4.418,6.118,6.118,0,0,1,2.329-5.092,10.245,10.245,0,0,1,6.489-1.835q4.482,0,6.944,2.22a7.8,7.8,0,0,1,2.46,6.1h5.655a11.986,11.986,0,0,0-1.89-6.533,12.888,12.888,0,0,0-5.332-4.687,17.479,17.479,0,0,0-7.837-1.7q-6.445,0-10.473,3.3a10.318,10.318,0,0,0-4.029,8.335,9.768,9.768,0,0,0,3.3,7.485q3.3,3.032,10.532,5.112Q156.747,84.656,158.944,86.37ZM199.93,86q0-7.675-3.325-11.982a10.809,10.809,0,0,0-9.038-4.307,11.165,11.165,0,0,0-9.2,4.1L178.1,70.3h-4.951v43.887h5.42V98.924a11.622,11.622,0,0,0,9.082,3.662,10.612,10.612,0,0,0,8.965-4.424q3.31-4.423,3.31-11.66V86Zm-7.719,9.067a7.328,7.328,0,0,1-6.2,3.091,7.983,7.983,0,0,1-7.441-4.336V78.68a7.969,7.969,0,0,1,7.383-4.365,7.361,7.361,0,0,1,6.269,3.105q2.286,3.106,2.285,8.467Q194.51,91.981,192.211,95.071ZM232.069,102v-0.469a17.837,17.837,0,0,1-1.113-6.943V80a9.883,9.883,0,0,0-3.223-7.544q-3.1-2.739-8.584-2.739A15.379,15.379,0,0,0,212.806,71a11.5,11.5,0,0,0-4.57,3.5,7.48,7.48,0,0,0-1.684,4.585H212a4.316,4.316,0,0,1,1.963-3.545,7.9,7.9,0,0,1,4.863-1.465,6.831,6.831,0,0,1,5.01,1.685,6.091,6.091,0,0,1,1.7,4.526v2.49h-5.274q-6.826,0-10.59,2.739a8.962,8.962,0,0,0-3.765,7.69,8.578,8.578,0,0,0,3,6.724,11.189,11.189,0,0,0,7.69,2.651,12.093,12.093,0,0,0,9.024-3.926,11.394,11.394,0,0,0,.761,3.34h5.684Zm-19.043-5.566a4.933,4.933,0,0,1-1.7-3.984q0-5.83,9.961-5.83h4.248v6.5a7.975,7.975,0,0,1-3.311,3.428,9.522,9.522,0,0,1-4.834,1.318A6.531,6.531,0,0,1,213.026,96.434Zm32.695-1.23q-2.256-2.959-2.255-8.437V85.74q0-5.625,2.27-8.6a7.586,7.586,0,0,1,6.4-2.974,7.244,7.244,0,0,1,5.171,1.977,7.466,7.466,0,0,1,2.329,5.054h5.127A11.413,11.413,0,0,0,261,72.908a12.717,12.717,0,0,0-8.863-3.193,13.857,13.857,0,0,0-7.514,1.992,12.934,12.934,0,0,0-4.878,5.6,19.082,19.082,0,0,0-1.7,8.233v0.908q0,7.5,3.823,11.821a13.056,13.056,0,0,0,10.3,4.321,13.309,13.309,0,0,0,6.108-1.465,12.339,12.339,0,0,0,4.614-3.926,9.826,9.826,0,0,0,1.875-5.186h-5.127a6.184,6.184,0,0,1-2.4,4.395,7.808,7.808,0,0,1-5.068,1.758A7.621,7.621,0,0,1,245.721,95.2Zm50.245,1.26-3.311-2.578a12.214,12.214,0,0,1-3.486,3.105,9.443,9.443,0,0,1-4.864,1.172,8.61,8.61,0,0,1-6.665-2.886A11.267,11.267,0,0,1,274.9,87.7h21.475V85.447q0-7.587-3.428-11.66t-9.609-4.072a12.671,12.671,0,0,0-7.017,2.095,14.057,14.057,0,0,0-5.039,5.8,19.026,19.026,0,0,0-1.8,8.423v1q0,7.09,4.043,11.323a13.848,13.848,0,0,0,10.488,4.233q7.969,0,11.954-6.123h0Zm-7.237-20.024a10.329,10.329,0,0,1,2.227,6.4v0.41H275.077a11.6,11.6,0,0,1,2.754-6.694,7.229,7.229,0,0,1,5.508-2.388A6.807,6.807,0,0,1,288.729,76.439Z"/>
</svg>
